STARTFONT 2.1
FONT -Adobe-ITC Zapf Dingbats-Medium-R-Normal--33-240-100-100-P-248-ADOBE-FONTSPECIFIC
SIZE 24 100 100
FONTBOUNDINGBOX 31 32 0 -5

STARTPROPERTIES 26
_DEC_DEVICE_FONTNAMES "PS=ZapfDingbats"
FONTNAME_REGISTRY ""
FAMILY_NAME "ITC Zapf Dingbats"
FOUNDRY "Adobe"
WEIGHT_NAME "Medium"
SLANT "R"
SETWIDTH_NAME "Normal"
ADD_STYLE_NAME ""
PIXEL_SIZE 33
POINT_SIZE 240
RESOLUTION_X 100
RESOLUTION_Y 100
SPACING "P"
AVERAGE_WIDTH 248
CHARSET_REGISTRY "ADOBE"
CHARSET_ENCODING "FONTSPECIFIC"
CHARSET_COLLECTIONS "FONTSPECIFIC"
FULL_NAME "ITC Zapf Dingbats"
COPYRIGHT "Copyright (c) 1991 Adobe Systems, Inc."
CAP_HEIGHT 25
X_HEIGHT 19
WEIGHT 10
QUAD_WIDTH 19
DEFAULT_CHAR 0
FONT_DESCENT 5
FONT_ASCENT 27
ENDPROPERTIES

CHARS 188

STARTCHAR space
ENCODING 32
SWIDTH 278 0
DWIDTH 9 0
BBX 1 1 0 0
BITMAP
00
ENDCHAR

STARTCHAR a1
ENCODING 33
SWIDTH 974 0
DWIDTH 32 0
BBX 28 19 1 2
BITMAP
3C000000
67000000
43000000
63000000
63000000
3F000000
0F800000
01C00000
00600000
0038FF80
001FFFF0
003FFFF0
7C7FFC00
C7FF0000
82038000
8203C000
C201C000
66000000
3C000000
ENDCHAR

STARTCHAR a2
ENCODING 34
SWIDTH 961 0
DWIDTH 32 0
BBX 28 17 1 3
BITMAP
7C000000
C6000000
82000060
820007F0
C6003FE0
7FC0FF00
007FFC00
003FE000
003FC000
003FF000
00F3FC00
3FC0FF80
E6003FE0
820007F0
820001F0
C6000000
7C000000
ENDCHAR

STARTCHAR a202
ENCODING 35
SWIDTH 974 0
DWIDTH 32 0
BBX 28 19 1 2
BITMAP
3C000000
66000000
C201C000
8203C000
82078000
CFFF0000
7C7FF000
003FFFF0
001FFFF0
0031FF80
00600000
01C00000
0F800000
3F000000
61000000
61000000
43000000
67000000
3C000000
ENDCHAR

STARTCHAR a3
ENCODING 36
SWIDTH 980 0
DWIDTH 33 0
BBX 30 23 1 0
BITMAP
3F000000
67800000
DF800000
B78007F0
A3801E3C
A380783C
F781E0F8
DFFFC3E0
780F0780
1FDE1F00
007E3C00
002EF000
006FF000
1FC79C00
780E0E00
FFFF0780
F381C1C0
A18060F0
A1803838
F3801E70
DF8007E0
73000000
3E000000
ENDCHAR

STARTCHAR a4
ENCODING 37
SWIDTH 719 0
DWIDTH 24 0
BBX 20 14 1 5
BITMAP
07FF00
3FFFE0
7FFFF0
7F07F0
7904F0
FBFEF0
038E00
070700
060700
060700
0F0780
0F8F80
0FFF80
0FFF80
ENDCHAR

STARTCHAR a5
ENCODING 38
SWIDTH 789 0
DWIDTH 26 0
BBX 23 23 1 0
BITMAP
00FE00
078380
0E00E0
181E30
303F18
603F0C
607F0C
40FA04
C0E206
81E202
81C002
83C002
838002
878002
C78006
47E004
67E00C
376008
36C018
060030
0600E0
038380
00FE00
ENDCHAR

STARTCHAR a119
ENCODING 39
SWIDTH 790 0
DWIDTH 26 0
BBX 23 23 1 0
BITMAP
00FE00
0783C0
0E38E0
183830
303818
60780C
607C0C
406C04
C03806
807C02
80FE02
82FE02
87FF82
8F7DE2
DFBBF6
5F83F4
7E00FC
60002C
300018
180030
0E00E0
0783C0
00FE00
ENDCHAR

STARTCHAR a118
ENCODING 40
SWIDTH 791 0
DWIDTH 26 0
BBX 23 23 1 0
BITMAP
01C000
00E000
00F800
007000
007800
003800
003F00
C03E00
E01F00
701F00
FFFFF8
FFFFFE
703FF0
601F00
C01F00
003E00
003F00
003800
007800
007000
00F800
00E000
01C000
ENDCHAR

STARTCHAR a117
ENCODING 41
SWIDTH 690 0
DWIDTH 23 0
BBX 20 15 1 4
BITMAP
FFFFF0
C00030
E00070
B801D0
9C6390
86F610
83FC10
81F810
83FC10
87FE10
9E6790
B801D0
F000F0
E00070
FFFFF0
ENDCHAR

STARTCHAR a11
ENCODING 42
SWIDTH 960 0
DWIDTH 32 0
BBX 28 15 1 4
BITMAP
000F0000
003FFC00
60FFFF80
6FFFFFE0
DFFFFFF0
DFFFF1F0
BFFFF800
BFFFF800
BFFFF000
BFFFF000
BFFFF000
DFFFE000
CFFFE000
60FFC000
00180000
ENDCHAR

STARTCHAR a12
ENCODING 43
SWIDTH 939 0
DWIDTH 31 0
BBX 28 14 1 4
BITMAP
007FFFE0
FDE18070
E780C030
E40C7FF0
E40E7800
F4C7F800
F4FC7800
F47DF800
F40FE800
F707FC00
F5C3E400
FC710C00
F03FB800
0001F000
ENDCHAR

STARTCHAR a13
ENCODING 44
SWIDTH 549 0
DWIDTH 18 0
BBX 15 23 1 0
BITMAP
1C0E
161A
1212
1312
1B36
0924
09E4
0DEC
04C8
1FF8
3E3C
2606
2302
73FA
D962
99C2
CD86
E786
7504
7D8C
6198
3870
0FC0
ENDCHAR

STARTCHAR a14
ENCODING 45
SWIDTH 855 0
DWIDTH 29 0
BBX 25 18 1 2
BITMAP
00038000
00F78000
01FF0000
07FE0000
0F3E0000
1E7F0000
1CF9DF80
18F0F980
31F00980
33F00880
33F80880
77F80880
7C000880
F9001880
FF007980
FFFFF180
F0001F00
E0000000
ENDCHAR

STARTCHAR a15
ENCODING 46
SWIDTH 911 0
DWIDTH 30 0
BBX 27 20 1 2
BITMAP
03800000
3FC00000
31F00000
64BC0000
6C8E0000
DCE78000
DDF1C000
C1BCF000
430E3C00
4F038C00
7FC1E600
38E07700
1E383F00
071E0D80
01C70D80
00F3D8C0
0038F8C0
000E7060
0007E0E0
0001FFE0
ENDCHAR

STARTCHAR a16
ENCODING 47
SWIDTH 933 0
DWIDTH 31 0
BBX 28 14 1 5
BITMAP
10000000
3FFFF000
6C001C00
E6001E00
F3FFFB80
B20009C0
B2000860
B2000870
B2000860
B20008C0
C7FFFB80
6C001F00
78001E00
3FFFFC00
ENDCHAR

STARTCHAR a105
ENCODING 48
SWIDTH 911 0
DWIDTH 30 0
BBX 27 20 1 1
BITMAP
0001FFE0
0007E0E0
000E7060
0038F8C0
00F3D8C0
01C70D80
079E0D80
1E381F00
38F07700
79C0E600
7F038C00
430E3C00
431C7000
DDF1E000
DCE38000
CCCE0000
6CBC0000
31F00000
3FE00000
0F800000
ENDCHAR

STARTCHAR a17
ENCODING 49
SWIDTH 945 0
DWIDTH 32 0
BBX 27 13 1 5
BITMAP
0003E000
00023800
3FC60E00
60CC0700
C078E380
8001E3E0
8001FFE0
8001E3E0
C078E3C0
60CC0300
3FC60E00
00033800
0003E000
ENDCHAR

STARTCHAR a18
ENCODING 50
SWIDTH 974 0
DWIDTH 32 0
BBX 29 16 1 4
BITMAP
00007000
0000F800
0001FC00
0001FE00
7FC1FE00
7FE3FF00
FFF39F80
FFFF8FF8
FFFF00F8
FFFF8FC0
FFF7FF80
7FE3FF00
7FC1FE00
0001FC00
0001F800
0000F800
ENDCHAR

STARTCHAR a19
ENCODING 51
SWIDTH 755 0
DWIDTH 25 0
BBX 24 26 0 -1
BITMAP
00001F
00007F
0000FF
0001FE
0003FC
0003F8
0007F8
000FF0
000FE0
001FC0
003FC0
003F80
007F00
007F00
3CFE00
FDFC00
FFFC00
FFF800
FFF000
FFF000
7FE000
7FC000
7FC000
3F8000
3F8000
1F0000
ENDCHAR

STARTCHAR a20
ENCODING 52
SWIDTH 846 0
DWIDTH 28 0
BBX 25 23 1 0
BITMAP
00000180
00000780
00000F80
00001F80
00003F80
00007F00
0000FE00
1C01FC00
7C03F800
7C07F000
FC0FE000
FC1FC000
FE3F8000
FE7F0000
FFFE0000
FFFC0000
FFF80000
7FF00000
7FE00000
7FC00000
7F800000
3F000000
0C000000
ENDCHAR

STARTCHAR a21
ENCODING 53
SWIDTH 762 0
DWIDTH 25 0
BBX 22 21 1 1
BITMAP
E0001C
F0003C
780078
3C00F0
1E01E0
0F03C0
078780
03CF00
01FE00
00FC00
007800
00FC00
01FE00
03CF00
078780
0F03C0
1E01E0
3C00F0
780078
F0003C
E0001C
ENDCHAR

STARTCHAR a22
ENCODING 54
SWIDTH 761 0
DWIDTH 25 0
BBX 22 21 1 1
BITMAP
0E01C0
1F03E0
3F87F0
7FCFF8
FFFFFC
7FFFF8
3FFFF0
1FFFE0
0FFFC0
07FF80
07FF80
0FFFC0
1FFFE0
3FFFF0
7FFFF8
FFFFFC
FFFFFC
7FCFF8
3F87F0
1F03E0
0E01C0
ENDCHAR

STARTCHAR a23
ENCODING 55
SWIDTH 571 0
DWIDTH 19 0
BBX 18 24 0 -2
BITMAP
0001C0
0703C0
070780
078F00
079F00
03DE00
03FC00
03F800
01F800
01F000
01F000
03F800
07F800
0FFC00
0FBC00
1F3E00
3E1E00
3E1E00
7C0C00
7C0400
F80000
F00000
F00000
E00000
ENDCHAR

STARTCHAR a24
ENCODING 56
SWIDTH 677 0
DWIDTH 23 0
BBX 19 23 1 0
BITMAP
000080
000180
0C03E0
3C07E0
3E0FC0
3F1F80
3F3F00
1FFE00
1FFE00
0FFC00
0FF800
07F000
07F800
0FF800
1FFC00
3FFE00
7FFF00
FE7F00
FC7F00
FC3E00
F81800
700000
300000
ENDCHAR

STARTCHAR a25
ENCODING 57
SWIDTH 763 0
DWIDTH 25 0
BBX 22 23 1 0
BITMAP
01FE00
010200
017A00
017A00
017A00
017A00
017A00
017A00
FF7BFC
807804
BFFFF4
BFFFF4
BFFFF4
807804
FF7BFC
017A00
017A00
017A00
017A00
017A00
017A00
010200
01FE00
ENDCHAR

STARTCHAR a26
ENCODING 58
SWIDTH 760 0
DWIDTH 25 0
BBX 23 23 1 0
BITMAP
00FE00
00FE00
00FE00
00FE00
00FE00
00FE00
00FE00
FFFFFE
FFFFFE
FFFFFE
FFFFFE
FFFFFE
FFFFFE
FFFFFE
FFFFFE
00FE00
00FE00
00FE00
00FE00
00FE00
00FE00
00FE00
00FE00
ENDCHAR

STARTCHAR a27
ENCODING 59
SWIDTH 759 0
DWIDTH 25 0
BBX 22 23 1 0
BITMAP
007800
007800
007800
007800
007800
007800
007800
007800
007800
FFFFFC
FFC7FC
FFC7FC
FFC7FC
FFFFFC
007800
007800
007800
007800
007800
007800
007800
007800
007800
ENDCHAR

STARTCHAR a28
ENCODING 60
SWIDTH 754 0
DWIDTH 25 0
BBX 22 23 1 0
BITMAP
01FC00
01FC00
01FC00
01FC00
01FC00
01FC00
01FC00
01FC00
FFFFFC
FF03FC
FF03FC
FF03FC
FF03FC
FF03FC
FF03FC
FFFFFC
01FC00
01FC00
01FC00
01FC00
01FC00
01FC00
01FC00
ENDCHAR

STARTCHAR a6
ENCODING 61
SWIDTH 494 0
DWIDTH 16 0
BBX 13 23 1 0
BITMAP
0700
0700
0700
0700
0700
0700
FFF8
FFF8
FFF8
0700
0700
0700
0700
0700
0700
0700
0700
0700
0700
0700
0700
0700
0700
ENDCHAR

STARTCHAR a7
ENCODING 62
SWIDTH 552 0
DWIDTH 18 0
BBX 15 23 1 0
BITMAP
0780
04C0
04E0
04E0
04E0
FCFC
800C
8006
8006
FCFE
7CFE
1CFE
04E0
04E0
04E0
04E0
04E0
04E0
04E0
04E0
06E0
07E0
01E0
ENDCHAR

STARTCHAR a8
ENCODING 63
SWIDTH 537 0
DWIDTH 18 0
BBX 15 23 1 0
BITMAP
0FE0
0820
0BA0
0BA0
0BA0
FBBE
8382
BFFA
BFFA
BFFA
FBBE
0BA0
0BA0
0BA0
0BA0
0BA0
0BA0
0BA0
0BA0
0BA0
0BA0
0BA0
0FE0
ENDCHAR

STARTCHAR a9
ENCODING 64
SWIDTH 577 0
DWIDTH 19 0
BBX 16 17 1 3
BITMAP
3FFC
07F0
83E1
81C1
81C1
C183
E087
F89F
FFFF
F89F
E087
C083
C1C1
81C1
83E1
07F0
3FFC
ENDCHAR

STARTCHAR a10
ENCODING 65
SWIDTH 692 0
DWIDTH 23 0
BBX 18 21 2 1
BITMAP
00C000
01E000
01E000
033000
021000
FFFFC0
C408C0
4C0C80
780780
300300
300300
780700
680780
CC0CC0
840840
FFFFC0
021000
033000
01E000
00C000
00C000
ENDCHAR

STARTCHAR a29
ENCODING 66
SWIDTH 786 0
DWIDTH 26 0
BBX 23 23 1 0
BITMAP
003800
007C00
007C00
007C00
007C00
003800
003800
003800
003800
781038
FF93FE
FFFFFE
FF93FE
38103C
003800
003800
003800
003800
007C00
007C00
007C00
007800
003800
ENDCHAR

STARTCHAR a30
ENCODING 67
SWIDTH 788 0
DWIDTH 26 0
BBX 23 23 1 0
BITMAP
003800
007C00
00FC00
00FE00
007C00
007C00
003800
001000
001000
7C107C
FE38FE
FFFFFE
FE38FE
7C107C
301018
001000
003800
007C00
007C00
00FE00
007E00
007C00
003800
ENDCHAR

STARTCHAR a31
ENCODING 68
SWIDTH 788 0
DWIDTH 26 0
BBX 23 23 1 0
BITMAP
003800
00FE00
00FE00
01FF00
01FF00
00FE00
00FE00
187C20
7E38FC
7F39FC
FFD7FE
FFFFFE
FFD7FE
FF39FC
7E38FC
187C30
00FE00
00FE00
01FF00
01FF00
00FE00
00FE00
003800
ENDCHAR

STARTCHAR a32
ENCODING 69
SWIDTH 790 0
DWIDTH 26 0
BBX 23 23 1 0
BITMAP
001800
003C00
003C00
007C00
00FF00
00FF00
00FE00
0C1460
1E10F0
7E10F0
FE10FE
FFFFFE
FE10FE
7E10FC
1E10F0
0C7060
00FE00
00FF00
00FF00
007C00
003C00
003C00
001800
ENDCHAR

STARTCHAR a33
ENCODING 70
SWIDTH 793 0
DWIDTH 26 0
BBX 23 21 1 1
BITMAP
001000
003800
003800
007C00
00FC00
01FE00
01FF00
07FF80
0FFFE0
3FFFF8
FFFFFE
3FFFF8
0FFFE0
07FF80
01FF00
00FE00
00FC00
007C00
003800
003800
001000
ENDCHAR

STARTCHAR a34
ENCODING 71
SWIDTH 794 0
DWIDTH 26 0
BBX 23 23 1 0
BITMAP
003800
003800
003800
006800
006C00
00CE00
01C600
03C700
0783C0
0E01E0
F8003E
E0000E
7E00F8
0F83E0
07C7C0
03C700
01C600
00EE00
006C00
002800
003800
003800
001000
ENDCHAR

STARTCHAR a35
ENCODING 72
SWIDTH 816 0
DWIDTH 27 0
BBX 24 23 1 0
BITMAP
001800
001800
001800
001800
003C00
003C00
003C00
003C00
C07E03
FFFFFF
3FFFFC
0FFFF0
07FFE0
01FFC0
01FF80
01FF80
01FF80
03FFC0
03E7C0
0381C0
0700E0
0E0070
0C0030
ENDCHAR

STARTCHAR a36
ENCODING 73
SWIDTH 823 0
DWIDTH 27 0
BBX 24 23 1 0
BITMAP
001800
001800
003C00
003C00
002400
002400
006600
006600
FFC3FF
E00007
70001E
180038
0E0060
0300C0
030080
0300C0
0218C0
023C40
066660
05C3E0
0F81E0
0F00F0
0E0070
ENDCHAR

STARTCHAR a37
ENCODING 74
SWIDTH 789 0
DWIDTH 26 0
BBX 23 23 1 0
BITMAP
00FE00
03EF80
0FEFE0
1FEFF0
3FC7F8
7FC7F8
7FC7FC
FF83FE
C00006
E0000E
F8003E
FC007E
FE00FE
FE00FE
FE00FE
7C00FC
7C387C
3CFC78
39FF78
1FFFB0
0FFFE0
03FF80
00FE00
ENDCHAR

STARTCHAR a38
ENCODING 75
SWIDTH 841 0
DWIDTH 28 0
BBX 24 23 1 0
BITMAP
001800
001800
001800
001800
001800
003800
003C00
003C00
003C01
FFE7FF
3FC3FC
0F81F0
0381E0
018180
008300
00E780
01FF80
01F780
03C3C0
0381C0
0300E0
060030
0C0030
ENDCHAR

STARTCHAR a39
ENCODING 76
SWIDTH 823 0
DWIDTH 27 0
BBX 24 23 1 0
BITMAP
001800
001800
003C00
003C00
002400
002400
006600
006600
FFFFFF
E07E07
707E1E
1C7F38
0EFF70
03FFC0
03FF80
033CC0
031840
023C40
066660
07C3E0
0781F0
0F00F0
0E0070
ENDCHAR

STARTCHAR a40
ENCODING 77
SWIDTH 833 0
DWIDTH 28 0
BBX 24 22 1 0
BITMAP
001800
001800
003C00
003C00
002400
007E00
007A00
80DF01
FFDFFF
763C2E
3FFFFC
1DFFF0
07FFE0
037EC0
03FFC0
02F740
06FF40
06FFE0
05C3A0
0781E0
0E0070
080010
ENDCHAR

STARTCHAR a41
ENCODING 78
SWIDTH 816 0
DWIDTH 27 0
BBX 23 22 2 0
BITMAP
001000
003800
003800
006800
006C00
00CC00
00C600
FFD7FA
FFB3FE
73399C
3BFFB0
0EFEE0
067DC0
027D80
06CE80
0786C0
0678C0
04EEC0
0DC7C0
0F01C0
0C00E0
080020
ENDCHAR

STARTCHAR a42
ENCODING 79
SWIDTH 831 0
DWIDTH 28 0
BBX 25 23 1 0
BITMAP
000C0000
000C0000
001C0000
001C0000
00340000
00340000
00360000
C0660080
FFE7FF80
7FE60700
3DFC3C00
0E1FF800
079FE000
01FC4000
00E66000
01C66000
01DF6000
01BFB000
0371F000
03E0D000
07807800
07003800
0E001800
ENDCHAR

STARTCHAR a43
ENCODING 80
SWIDTH 923 0
DWIDTH 31 0
BBX 26 23 1 0
BITMAP
001F0000
001F0000
003F0000
00378000
00278000
00678000
0063C000
8043C000
FFC3FFC0
700003C0
38000F80
1C001F00
07007C00
0300F800
0300F800
03007800
02187800
063E7C00
067F3C00
05FBFC00
0FF0FE00
0FE07E00
03800000
ENDCHAR

STARTCHAR a44
ENCODING 81
SWIDTH 744 0
DWIDTH 25 0
BBX 21 23 1 0
BITMAP
00F800
00F800
00F800
00F800
30F860
7CF9F0
FEFBF8
FFFFF8
7FFFF0
1FFFC0
07FF00
07FF00
0FFF80
3FFFE0
FFFFF8
FFFFF8
7EFBF0
78F8F0
30F860
00F800
00F800
00F800
00F800
ENDCHAR

STARTCHAR a45
ENCODING 82
SWIDTH 723 0
DWIDTH 24 0
BBX 20 23 2 0
BITMAP
00F000
00F000
00F000
00F000
40F020
F0F0E0
F8F1F0
FEF7F0
7F0FE0
1E0780
060600
000000
060600
1E0780
7F0FE0
FEF7F0
F8F1F0
70F0F0
40F020
00F000
00F000
00F000
00F000
ENDCHAR

STARTCHAR a46
ENCODING 83
SWIDTH 749 0
DWIDTH 25 0
BBX 21 23 1 0
BITMAP
002000
002000
002000
102000
1820C0
0C21C0
062300
032700
03AE00
01FC00
00F800
FFFFF8
007000
00F800
01AC00
032600
062300
0C2180
1820C0
102040
002000
002000
002000
ENDCHAR

STARTCHAR a47
ENCODING 84
SWIDTH 790 0
DWIDTH 26 0
BBX 23 23 1 0
BITMAP
001000
001000
001000
181030
1C1070
0E1060
0710C0
039980
01DF00
00FE00
00FC00
FFFFFE
007F00
00FE00
01F700
033380
0611C0
0C10E0
1C1070
181020
001000
001000
001000
ENDCHAR

STARTCHAR a48
ENCODING 85
SWIDTH 792 0
DWIDTH 26 0
BBX 23 23 1 0
BITMAP
003000
003000
003000
1C3870
1C79F0
0E7BE0
0FFFC0
07FD80
07DB00
0377E0
07BCFE
FFFFFE
FE7FC0
0FDD80
01BD80
0376C0
07FFE0
0FBDE0
1E3CF0
1C1870
001800
001800
001800
ENDCHAR

STARTCHAR a49
ENCODING 86
SWIDTH 695 0
DWIDTH 23 0
BBX 21 22 1 1
BITMAP
002000
002000
002000
007000
007000
E07038
7870F0
1E73C0
0FFF80
07FF00
03FE00
01FC00
03FE00
07FF00
0FFF80
1E73C0
7870F0
E07038
007000
006000
002000
002000
ENDCHAR

STARTCHAR a50
ENCODING 87
SWIDTH 776 0
DWIDTH 26 0
BBX 23 23 1 0
BITMAP
020100
030300
010300
018600
01CE00
01EE00
C1FE0E
FEFFFC
3FFFF0
0FFFC0
07FF80
03FF00
0FFFC0
1FFFE0
7FFFF0
E1FCF8
01FE0E
01CE00
01CE00
018600
010200
030300
020100
ENDCHAR

STARTCHAR a51
ENCODING 88
SWIDTH 768 0
DWIDTH 26 0
BBX 22 23 1 0
BITMAP
020100
030300
030700
038600
03CE00
01FE00
C1FE0C
FFFFFC
3FFFF0
1FFFE0
0FFFC0
07FF80
0FFFC0
3FFFF0
7FFFF8
FDFEFC
01FE00
01FE00
03CE00
038600
030700
030300
020100
ENDCHAR

STARTCHAR a52
ENCODING 89
SWIDTH 792 0
DWIDTH 26 0
BBX 23 23 1 0
BITMAP
001000
021000
0610C0
033180
03BB80
21FF08
7DFF3C
1FFFF0
0FFFE0
07FFC0
FFFFFE
FFFFFE
0FFFE0
07FFC0
0FFFE0
1FFFF0
79FF1C
21FF80
03BB80
0331C0
0610C0
021000
001000
ENDCHAR

STARTCHAR a53
ENCODING 90
SWIDTH 759 0
DWIDTH 25 0
BBX 23 23 1 0
BITMAP
001000
011100
019300
089220
0C9660
06D6C0
035580
71FF1C
1CFE70
07FFC0
01FF00
FFFFFE
01FF00
07FFC0
1CFE70
71FF1C
035580
06D6C0
0C9260
089220
019300
011100
001000
ENDCHAR

STARTCHAR a54
ENCODING 91
SWIDTH 707 0
DWIDTH 24 0
BBX 20 23 1 0
BITMAP
006000
00F000
00F000
00E000
006000
E06070
F060F0
F801F0
7C03E0
06F200
01F800
01F800
01F800
06F600
3E07C0
F801F0
F860F0
E06070
006000
00E000
00F000
00F000
006000
ENDCHAR

STARTCHAR a55
ENCODING 92
SWIDTH 708 0
DWIDTH 24 0
BBX 21 23 1 0
BITMAP
006000
007000
00F000
007000
007000
707070
F860F8
FC61F8
7EFBF0
1FDFC0
010C00
010400
010C00
1F9FC0
7EFBF0
FC61F8
F860F8
707070
007000
00F000
00F000
007000
006000
ENDCHAR

STARTCHAR a56
ENCODING 93
SWIDTH 682 0
DWIDTH 23 0
BBX 19 23 1 0
BITMAP
004000
01F000
01F000
01F000
01F000
F0E1E0
F8E3E0
FCE7E0
FE4FE0
7F5FC0
03F800
00E000
03FC00
7F5FC0
FE4FE0
FCE7E0
F8E3E0
F0E1E0
01F000
01F000
01F000
00F000
004000
ENDCHAR

STARTCHAR a57
ENCODING 94
SWIDTH 701 0
DWIDTH 23 0
BBX 20 23 1 0
BITMAP
00F000
01F800
019800
010800
110800
7D9BE0
FF9FF0
FED7F0
FFFFF0
7FFFE0
3FFFC0
03FC00
3FFFC0
60F860
C1FC30
837C10
86FE10
EEFF70
7CFFF0
01FC00
01FC00
00F800
002000
ENDCHAR

STARTCHAR a58
ENCODING 95
SWIDTH 826 0
DWIDTH 28 0
BBX 24 23 1 0
BITMAP
003C00
007E00
00FF00
01FF80
01FF80
1DFF80
7EFF7E
FFFFFF
FFFFFF
FF83FF
FF01FF
FF00FF
7F00FE
3F80FC
0781E0
0FDBF0
1FFFF8
1FFFF8
1FFFF8
1FFFF8
1FE7F8
0FE7F0
0781E0
ENDCHAR

STARTCHAR a59
ENCODING 96
SWIDTH 815 0
DWIDTH 27 0
BBX 24 23 1 0
BITMAP
003C00
007E00
00C700
00C300
008100
009100
3ED37C
73D3CE
E1D387
C0FE03
C7FEE3
E1FF83
70FF0E
1FFFFC
077EE0
0EFF70
08D9B0
199998
183C18
183418
1C6638
0FC3F0
0781E0
ENDCHAR

STARTCHAR a60
ENCODING 97
SWIDTH 789 0
DWIDTH 26 0
BBX 23 23 1 0
BITMAP
007C00
00EE00
1FFFF0
3BBB38
36FAD8
2FFFE8
3FFFF8
37FFD8
7FFFFC
E7C7EE
FF83F6
BF83FA
FF83FE
EFC7EE
7FFFFC
37FFD8
3FFDF8
2FFFE8
36BED8
3BBBB8
1FFFF0
00EE00
007C00
ENDCHAR

STARTCHAR a61
ENCODING 98
SWIDTH 789 0
DWIDTH 26 0
BBX 25 25 0 -1
BITMAP
00080000
003E0000
01F7C000
1FF7EC00
0FE3FC00
09E3C800
1C7F0C00
3CE39E00
3D80DE00
3F007E00
7F007F00
72002700
C2002180
72002700
7F007F00
3F007E00
3D80DE00
3CE39E00
1C7F0C00
09E3C800
0FE3FC00
1BF7EC00
01F7C000
001E0000
00080000
ENDCHAR

STARTCHAR a62
ENCODING 99
SWIDTH 707 0
DWIDTH 24 0
BBX 21 23 1 0
BITMAP
01E000
01F000
01B800
013800
81B9E0
F9B3F0
FDB730
8EBEF0
C7FFF0
71FFE0
3FFF80
01FF00
1FFFE0
7EFC78
F9FF18
E3F7C8
C6DBF8
CDD9F8
79D800
01C800
01D800
01F800
007800
ENDCHAR

STARTCHAR a63
ENCODING 100
SWIDTH 687 0
DWIDTH 23 0
BBX 18 23 2 0
BITMAP
008000
008000
069000
07F000
11C200
908240
F083C0
708380
7C8F80
C6B8C0
03E000
01C000
87F040
EC9DC0
388700
708380
D082C0
108200
13E200
07B000
049000
008000
008000
ENDCHAR

STARTCHAR a64
ENCODING 101
SWIDTH 696 0
DWIDTH 23 0
BBX 20 24 1 0
BITMAP
006000
006000
002000
062600
072E00
07FE00
C4F270
F422F0
3C23C0
0E2700
3FAFC0
F0F8F0
E0F070
7BFDE0
1F2780
1C2380
7422E0
E47270
05FA00
07FE00
066600
006000
006000
006000
ENDCHAR

STARTCHAR a65
ENCODING 102
SWIDTH 689 0
DWIDTH 23 0
BBX 19 23 1 0
BITMAP
004000
004000
035800
03F800
31F100
98E320
F843E0
7843C0
FE4FE0
F75DE0
01F000
01F000
C3F860
FE4FE0
7C47C0
7843C0
D84360
18E300
31F100
03F800
035800
004000
004000
ENDCHAR

STARTCHAR a66
ENCODING 103
SWIDTH 786 0
DWIDTH 26 0
BBX 23 23 1 0
BITMAP
001800
203800
303818
383838
0C3860
0638C0
073980
039700
018600
003000
FE78FE
FF79FE
FE30FE
008400
019600
031300
063980
0C38C0
183860
303830
203810
003800
003800
ENDCHAR

STARTCHAR a67
ENCODING 104
SWIDTH 787 0
DWIDTH 26 0
BBX 23 23 1 0
BITMAP
003000
007C00
307C18
387C38
1C7C70
0E78E0
0739C0
031180
000000
7C387C
FF7DFE
FF7DFE
7E7CFC
78383C
010100
031180
0638C0
0C7C60
187C30
307C18
207C08
007C00
001000
ENDCHAR

STARTCHAR a68
ENCODING 105
SWIDTH 713 0
DWIDTH 24 0
BBX 21 23 1 0
BITMAP
007000
00F800
00F800
00F800
00F800
7820F0
FC21F8
FC21F8
7E23F0
33AE60
00F800
00F800
01FC00
7F27F0
FC21F8
FC21F8
FC21F8
7870F0
00F800
00F800
00F800
00F800
007000
ENDCHAR

STARTCHAR a69
ENCODING 106
SWIDTH 791 0
DWIDTH 26 0
BBX 23 23 1 0
BITMAP
003000
003800
003800
1C3870
1E1070
0E10F0
0711C0
018380
013B00
007C00
F07C1E
FEFEFE
F07C1E
007C00
019300
038380
0711C0
1E10F0
1C1070
183870
003800
003800
003800
ENDCHAR

STARTCHAR a70
ENCODING 107
SWIDTH 785 0
DWIDTH 26 0
BBX 22 23 1 0
BITMAP
003000
007800
007800
1878E0
3C71F0
1E31E0
1F33C0
07B780
03B600
60FC18
FFFFFC
FFFFFC
F0783C
01FE00
03B700
0F33C0
1F33E0
1E31F0
1C78F0
187860
007800
007800
003000
ENDCHAR

STARTCHAR a71
ENCODING 108
SWIDTH 791 0
DWIDTH 26 0
BBX 23 23 1 0
BITMAP
007C00
03FF80
0FFFE0
1FFFF0
3FFFF8
3FFFF8
7FFFFC
7FFFFC
FFFFFE
FFFFFE
FFFFFE
FFFFFE
FFFFFE
FFFFFE
FFFFFE
7FFFFC
7FFFFC
3FFFF8
3FFFF8
1FFFF0
0FFFE0
03FF80
007E00
ENDCHAR

STARTCHAR a72
ENCODING 109
SWIDTH 873 0
DWIDTH 29 0
BBX 26 23 1 0
BITMAP
00FF8000
0783F000
0E00FC00
18003E00
30001F00
60000F00
60000780
40000780
C00007C0
800003C0
800003C0
800003C0
800003C0
800003C0
C00007C0
40000780
60000780
60000F00
30001F00
18003E00
0E007C00
0783F000
00FF8000
ENDCHAR

STARTCHAR a73
ENCODING 110
SWIDTH 761 0
DWIDTH 25 0
BBX 22 23 1 0
BITMAP
FFFFFC
FFFFFC
FFFFFC
FFFFFC
FFFFFC
FFFFFC
FFFFFC
FFFFFC
FFFFFC
FFFFFC
FFFFFC
FFFFFC
FFFFFC
FFFFFC
FFFFFC
FFFFFC
FFFFFC
FFFFFC
FFFFFC
FFFFFC
FFFFFC
FFFFFC
FFFFFC
ENDCHAR

STARTCHAR a74
ENCODING 111
SWIDTH 762 0
DWIDTH 25 0
BBX 22 23 1 0
BITMAP
FFFFE0
800020
800020
80003C
80003C
80003C
80003C
80003C
80003C
80003C
80003C
80003C
80003C
80003C
80003C
80003C
80003C
80003C
80003C
FFFFFC
1FFFFC
1FFFFC
1FFFFC
ENDCHAR

STARTCHAR a203
ENCODING 112
SWIDTH 762 0
DWIDTH 25 0
BBX 22 23 1 0
BITMAP
1FFFFC
1FFFFC
1FFFFC
FFFFFC
80003C
80003C
80003C
80003C
80003C
80003C
80003C
80003C
80003C
80003C
80003C
80003C
80003C
80003C
80003C
80003C
800020
800020
FFFFE0
ENDCHAR

STARTCHAR a75
ENCODING 113
SWIDTH 759 0
DWIDTH 25 0
BBX 22 23 1 0
BITMAP
FFFFE0
800030
800038
80003C
80003C
80003C
80003C
80003C
80003C
80003C
80003C
80003C
80003C
80003C
80003C
80003C
80003C
80003C
80003C
FFFFFC
7FFFFC
3FFFFC
1FFFFC
ENDCHAR

STARTCHAR a204
ENCODING 114
SWIDTH 759 0
DWIDTH 25 0
BBX 22 23 1 0
BITMAP
1FFFFC
3FFFFC
7FFFFC
FFFFFC
80003C
80003C
80003C
80003C
80003C
80003C
80003C
80003C
80003C
80003C
80003C
80003C
80003C
80003C
80003C
80003C
800038
800030
FFFFE0
ENDCHAR

STARTCHAR a76
ENCODING 115
SWIDTH 892 0
DWIDTH 30 0
BBX 26 22 1 0
BITMAP
000C0000
000C0000
001E0000
003F0000
003F0000
007F8000
007F8000
00FFC000
01FFC000
01FFE000
03FFF000
03FFF000
07FFF800
07FFF800
0FFFFC00
1FFFFE00
1FFFFE00
3FFFFF00
3FFFFF00
7FFFFF80
7FFFFF80
FFFFFFC0
ENDCHAR

STARTCHAR a77
ENCODING 116
SWIDTH 892 0
DWIDTH 30 0
BBX 26 22 1 1
BITMAP
FFFFFFC0
7FFFFF80
7FFFFF80
3FFFFF00
3FFFFF00
1FFFFE00
1FFFFE00
0FFFFC00
07FFF800
07FFF800
03FFF000
03FFF000
01FFE000
01FFE000
00FFC000
007F8000
007F8000
003F0000
003F0000
001E0000
000C0000
000C0000
ENDCHAR

STARTCHAR a78
ENCODING 117
SWIDTH 788 0
DWIDTH 26 0
BBX 23 21 1 1
BITMAP
003800
007C00
00FE00
01FF00
03FF80
07FFC0
0FFFE0
1FFFF0
3FFFF8
7FFFFC
FFFFFE
7FFFFC
3FFFF8
1FFFF0
0FFFE0
07FFC0
03FF80
01FF00
00FE00
007C00
003800
ENDCHAR

STARTCHAR a79
ENCODING 118
SWIDTH 784 0
DWIDTH 26 0
BBX 21 21 2 1
BITMAP
007000
00F800
01FC00
03FE00
03FE00
01FC00
18F8C0
3C71E0
7E03F0
FF07F8
FF8FF8
FF07F8
7E23F0
1C71E0
08F880
01FC00
03FE00
03FE00
01FC00
00F800
007000
ENDCHAR

STARTCHAR a81
ENCODING 119
SWIDTH 438 0
DWIDTH 15 0
BBX 12 23 1 0
BITMAP
E000
FC00
FE00
FF80
FF80
FFC0
FFE0
FFE0
FFE0
FFF0
FFF0
FFF0
FFF0
FFF0
FFE0
FFE0
FFE0
FFC0
FF80
FF80
FE00
FC00
E000
ENDCHAR

STARTCHAR a82
ENCODING 120
SWIDTH 138 0
DWIDTH 5 0
BBX 2 23 1 0
BITMAP
C0
C0
C0
C0
C0
C0
C0
C0
C0
C0
C0
C0
C0
C0
C0
C0
C0
C0
C0
C0
C0
C0
C0
ENDCHAR

STARTCHAR a83
ENCODING 121
SWIDTH 277 0
DWIDTH 9 0
BBX 7 23 1 0
BITMAP
FE
FE
FE
FE
FE
FE
FE
FE
FE
FE
FE
FE
FE
FE
FE
FE
FE
FE
FE
FE
FE
FE
FE
ENDCHAR

STARTCHAR a84
ENCODING 122
SWIDTH 415 0
DWIDTH 14 0
BBX 11 23 1 0
BITMAP
FFE0
FFE0
FFE0
FFE0
FFE0
FFE0
FFE0
FFE0
FFE0
FFE0
FFE0
FFE0
FFE0
FFE0
FFE0
FFE0
FFE0
FFE0
FFE0
FFE0
FFE0
FFE0
FFE0
ENDCHAR

STARTCHAR a97
ENCODING 123
SWIDTH 392 0
DWIDTH 13 0
BBX 10 15 1 8
BITMAP
07C0
1E00
3000
6000
6000
FE00
FF80
FF80
FFC0
FFC0
FFC0
FFC0
7F80
7F80
1E00
ENDCHAR

STARTCHAR a98
ENCODING 124
SWIDTH 392 0
DWIDTH 13 0
BBX 10 14 1 9
BITMAP
1E00
7F80
FF80
FFC0
FFC0
FFC0
FFC0
7FC0
3FC0
0180
0180
0300
1E00
FC00
ENDCHAR

STARTCHAR a99
ENCODING 125
SWIDTH 668 0
DWIDTH 22 0
BBX 19 15 1 8
BITMAP
0381E0
0E0700
180C00
301800
603000
7F3F80
FFFFC0
FFFFE0
FFFFE0
FFFFE0
FFFFE0
FFFFE0
7FBFC0
3F1FC0
1E0F00
ENDCHAR

STARTCHAR a100
ENCODING 126
SWIDTH 668 0
DWIDTH 22 0
BBX 19 14 1 9
BITMAP
1E0F00
7F1F80
7FBFC0
FFFFE0
FFFFE0
FFFFE0
FFFFE0
7FFFE0
3F9FE0
0D86C0
030180
060380
1C0E00
703800
ENDCHAR

STARTCHAR a101
ENCODING 161
SWIDTH 732 0
DWIDTH 24 0
BBX 20 32 1 -5
BITMAP
000200
000200
000200
000200
07FFF0
1FE200
3FE200
7FE200
7FE200
7FE200
FFE200
FFE200
7FE200
7FE200
7FE200
3FE200
3FE200
0FFA00
07FE00
000200
000200
000200
000200
070200
0F8600
1F8400
1F8400
1F0C00
1C0C00
1C1800
0E7000
03E000
ENDCHAR

STARTCHAR a102
ENCODING 162
SWIDTH 544 0
DWIDTH 18 0
BBX 14 24 2 0
BITMAP
3FF0
7FF8
FFFC
FFFC
FFFC
FFFC
FFFC
7FF8
3FF0
1FE0
0780
0300
0300
0300
0300
0FC0
1FE0
1FE0
1FE0
3FF0
1FE0
1FE0
0FC0
0780
ENDCHAR

STARTCHAR a103
ENCODING 163
SWIDTH 544 0
DWIDTH 18 0
BBX 15 23 1 0
BITMAP
3838
7C7C
FEFE
FFFE
FFFE
FFFE
FFFE
7FFC
3FF8
1FF0
07C0
0380
0000
0000
07C0
0FE0
1FF0
1FF0
1FF0
1FF0
0FF0
0FE0
0380
ENDCHAR

STARTCHAR a104
ENCODING 164
SWIDTH 910 0
DWIDTH 30 0
BBX 27 20 1 2
BITMAP
0FC07E00
3FE0FF80
7FF1FFC0
7FFBFFC0
FFFBFFE0
FFFBFFE0
FFFFFFE0
FFFFFFE0
FFFFFFE0
7FFFFFC0
7FFFFFC0
3FFFFF80
1FFFFF00
0FFFFE00
03FFF000
007FC000
003F8000
001F0000
000E0000
00040000
ENDCHAR

STARTCHAR a106
ENCODING 165
SWIDTH 667 0
DWIDTH 22 0
BBX 19 23 1 0
BITMAP
0F0000
3F8000
7FC000
FFE000
FFE000
FFF000
FFF000
FFF800
7FFC00
3FFF00
0FFFE0
0FFFE0
3FFF00
7FFC00
7FF800
FFF800
FFF000
FFF000
FFE000
FFE000
7FC000
3F8000
1F0000
ENDCHAR

STARTCHAR a107
ENCODING 166
SWIDTH 760 0
DWIDTH 25 0
BBX 22 23 1 0
BITMAP
1F7818
73EC3C
60EC3C
40741C
C03C18
C01E70
C00FE0
009800
07DB80
07FFC0
0FEFE0
0FFFE0
0FFFE0
0FFFE0
0FFFE0
0FFFC0
0FFF80
07FE00
07F800
03F0C0
01F1C0
00F1C0
001F00
ENDCHAR

STARTCHAR a108
ENCODING 167
SWIDTH 760 0
DWIDTH 25 0
BBX 23 16 1 4
BITMAP
200000
600000
C00000
E03E00
787F00
0C7F80
1FFF80
3DFF80
6CFF80
5CFF86
F9FF86
E1FFCC
C1FFFC
E9FFF0
F8FFE0
707F80
ENDCHAR

STARTCHAR a112
ENCODING 168
SWIDTH 776 0
DWIDTH 26 0
BBX 23 23 1 0
BITMAP
007C00
00FE00
01FF00
01FF00
03FF00
03FF80
01FF00
01FF00
3FFFF8
7FFFFC
7FFFFC
FFFFFE
FFFFFE
FFFFFE
7FFFFC
7FD7FC
3F93F8
1E18F0
003800
007C00
00FE00
03FF80
0FFFE0
ENDCHAR

STARTCHAR a111
ENCODING 169
SWIDTH 595 0
DWIDTH 20 0
BBX 17 21 1 1
BITMAP
01C000
01C000
03E000
07F000
0FF000
0FF800
1FFC00
3FFE00
7FFF00
7FFF00
FFFF80
7FFF00
3FFE00
1FFC00
1FFC00
0FF800
07F000
03F000
03E000
01C000
00C000
ENDCHAR

STARTCHAR a110
ENCODING 170
SWIDTH 694 0
DWIDTH 23 0
BBX 20 23 1 0
BITMAP
1E0780
7F0FE0
7F9FE0
FFFFF0
FFFFF0
FFFFF0
FFFFF0
7FFFE0
7FFFE0
3FFFC0
3FFFC0
1FFF80
0FFF00
07FF00
07FE00
03FC00
01F800
01F800
00F000
006000
006000
006000
006000
ENDCHAR

STARTCHAR a109
ENCODING 171
SWIDTH 626 0
DWIDTH 21 0
BBX 17 23 2 0
BITMAP
008000
008000
008000
01C000
03E000
03E000
07F000
0FF800
3FFC00
3FFE00
7FFF00
FFFF80
FFFF80
FFFF80
FFFF80
FFFF80
7EBF00
388E00
01C000
01C000
03E000
0FF800
7FFF00
ENDCHAR

STARTCHAR a120
ENCODING 172
SWIDTH 788 0
DWIDTH 26 0
BBX 23 23 1 0
BITMAP
00FE00
0783C0
0C00E0
180030
301818
60780C
41F80C
403804
C03806
803802
803802
803802
803802
803802
C03806
403804
60380C
603C08
31FF18
180030
0C00E0
078380
00FE00
ENDCHAR

STARTCHAR a121
ENCODING 173
SWIDTH 788 0
DWIDTH 26 0
BBX 23 23 1 0
BITMAP
00FE00
038380
0E00E0
180030
307C18
21CE08
61C70C
41C704
C08706
800F02
800E02
801C02
803802
80E082
C0C086
418084
63FF8C
23FF88
33FF98
180030
0E00E0
038380
00FE00
ENDCHAR

STARTCHAR a122
ENCODING 174
SWIDTH 788 0
DWIDTH 26 0
BBX 23 23 1 0
BITMAP
00FE00
038380
0E00E0
180030
30FE18
21CF08
61C70C
41C704
C00706
801C02
807C02
800702
800782
800382
C38386
438384
63878C
23CF08
30FC18
180030
0E00E0
038380
00FE00
ENDCHAR

STARTCHAR a123
ENCODING 175
SWIDTH 788 0
DWIDTH 26 0
BBX 23 23 1 0
BITMAP
00FE00
0383C0
0E0060
180030
301C18
603C0C
603C04
407C04
C0DC06
809C02
819C02
831C02
861C02
87FF82
C7FF86
401C04
601C0C
203E08
30FF18
180030
0E00E0
0383C0
00FE00
ENDCHAR

STARTCHAR a124
ENCODING 176
SWIDTH 788 0
DWIDTH 26 0
BBX 23 23 1 0
BITMAP
00FE00
0383C0
0E0060
180030
30FF18
60FF0C
61FE04
418004
C18006
810002
817E02
81CF02
800782
800782
C10786
438784
63870C
238E08
30FC18
180030
0E00E0
038380
00FE00
ENDCHAR

STARTCHAR a125
ENCODING 177
SWIDTH 788 0
DWIDTH 26 0
BBX 23 23 1 0
BITMAP
01FE00
0703C0
1C0060
38FC30
31C718
63870C
438704
C78606
870006
871C02
877F02
87C702
878382
878382
C78386
438384
63870C
21C608
30FC18
180030
0C00E0
078380
00FE00
ENDCHAR

STARTCHAR a126
ENCODING 178
SWIDTH 788 0
DWIDTH 26 0
BBX 23 23 1 0
BITMAP
00FE00
038380
0E00E0
180030
33FF98
23FF88
63FF0C
430304
C20606
820C02
800C02
801802
803802
803002
C07006
40F004
60F00C
60F00C
307018
180030
0E00E0
0783C0
00FE00
ENDCHAR

STARTCHAR a127
ENCODING 179
SWIDTH 788 0
DWIDTH 26 0
BBX 23 23 1 0
BITMAP
01FF00
0703C0
0C0060
187C30
30E718
61C30C
41C304
C1C306
81F602
80FC02
807E02
80DF02
818F82
838382
C30386
430384
63838C
21CF08
30FC18
180030
0E00E0
038380
00FE00
ENDCHAR

STARTCHAR a128
ENCODING 180
SWIDTH 788 0
DWIDTH 26 0
BBX 23 23 1 0
BITMAP
00FF00
0781C0
0E0060
187E30
30EF18
21878C
638784
4383C4
C383C6
8387C2
8387C2
81C7C2
81FDC2
8071C2
C081C6
41C384
61C384
21C70C
307E18
180030
0E0060
0383C0
00FF00
ENDCHAR

STARTCHAR a129
ENCODING 181
SWIDTH 788 0
DWIDTH 26 0
BBX 23 23 1 0
BITMAP
00FE00
038380
0E00E0
180030
30C7D8
21CEE8
6FCEEC
41DC74
C1DC76
81DC72
81DC72
81DC72
81DC72
81DC72
C1DC76
41DC74
61CEEC
21CEE8
37E7D8
180030
0E00E0
038380
00FE00
ENDCHAR

STARTCHAR a130
ENCODING 182
SWIDTH 788 0
DWIDTH 26 0
BBX 23 23 1 0
BITMAP
00FE00
03FF80
0FFFE0
1FF7F0
3FE7F8
3F07F8
7E07FC
7FC7FC
FFC7FE
FFC7FE
FFC7FE
FFC7FE
FFC7FE
FFC7FE
FFC7FE
7FC7FC
7FC7FC
3FC7F8
3FC3F8
1E00F0
0FFFE0
07FF80
00FE00
ENDCHAR

STARTCHAR a131
ENCODING 183
SWIDTH 788 0
DWIDTH 26 0
BBX 23 23 1 0
BITMAP
00FE00
03FFC0
07FFE0
0F83F0
1F19F8
3E38FC
3E3C7C
7E3C7E
7FFC7E
7FF87E
7FF8FE
FFF1FE
7FE3FE
7F8FFE
7F3FBE
7E7FBE
3EFF3C
3C003C
1C0038
0C0030
07FFE0
03FFC0
00FF00
ENDCHAR

STARTCHAR a132
ENCODING 184
SWIDTH 788 0
DWIDTH 26 0
BBX 23 23 1 0
BITMAP
00FE00
03FFC0
0FFFE0
1F81F0
3E38F8
3E78FC
7E787C
7FF8FE
FFF8FE
FFF1FE
FF87FE
FFF8FE
FFFC7E
FFFC7E
7EFC3E
7C7C3C
7C7C7C
3C7878
1E00F8
1F03F0
07FFE0
03FF80
00FE00
ENDCHAR

STARTCHAR a133
ENCODING 185
SWIDTH 788 0
DWIDTH 26 0
BBX 23 23 1 0
BITMAP
00FE00
03FFC0
0FFFE0
1FE3F0
3FE3F8
3FC3F8
7F83FC
7FB3FC
FF63FE
FF63FE
FEE3FE
FDE3FE
FDE3FE
FBE3FE
F0003E
70003E
7FE3FC
3FE3FC
3FE3F8
1F00F0
0FFFE0
07FFC0
01FF00
ENDCHAR

STARTCHAR a134
ENCODING 186
SWIDTH 788 0
DWIDTH 26 0
BBX 23 23 1 0
BITMAP
00FC00
03FF80
0FFFC0
1E7F70
3E00F0
3E00F8
7E01FC
7EFFFC
FEFFFC
FCFFFE
FC83FE
FC70FE
FEF87E
FFF87E
FFF87C
78F87C
78F87C
38F0F8
3C61F8
1F07F0
0FFFE0
03FF80
00FE00
ENDCHAR

STARTCHAR a135
ENCODING 187
SWIDTH 788 0
DWIDTH 26 0
BBX 23 23 1 0
BITMAP
00FE00
03FF80
0FFFE0
1FC3F0
1F18F8
3E3C78
7C7C7C
7C7CFC
787FFE
F8FFFE
F8C0FE
F8B87E
F87C3E
F87C3E
787E3E
7C7E3C
7C7E7C
3E7C78
1E38F8
1F83F0
0FFFE0
03FF80
00FE00
ENDCHAR

STARTCHAR a136
ENCODING 188
SWIDTH 788 0
DWIDTH 26 0
BBX 23 23 1 0
BITMAP
01FE00
07FF80
0FFFE0
180070
380078
7800F8
79FCFC
7BFDFC
FBFBFC
FFF3FE
FFF7FE
FFE7FE
FFCFFE
FF8FFE
FF8FFC
7F0FFC
7F0FFC
7F0FF8
3F0FF0
1F9FF0
0FFFE0
07FF80
00FE00
ENDCHAR

STARTCHAR a137
ENCODING 189
SWIDTH 788 0
DWIDTH 26 0
BBX 23 23 1 0
BITMAP
00FE00
03FF80
0FFFE0
1F83F0
3F38F8
7E7CFC
7E7CFC
FE3CFE
FE1DFE
FE03FE
FF01FE
FF00FE
FE707E
FCF87E
FCFC3E
F8FC7E
7CFC7C
7CFC7C
3E38F8
1F83F0
0FFFE0
03FF80
00FE00
ENDCHAR

STARTCHAR a138
ENCODING 190
SWIDTH 788 0
DWIDTH 26 0
BBX 23 23 1 0
BITMAP
00FE00
03FF80
0FFFE0
1F87F0
3E39F8
3C7CF8
7CFC7C
78FC7C
F8FC3C
F8FC3E
F87C3E
FC3A3E
FE063E
FFBE3E
FFFC3C
7EFC7C
7C7C7C
3C78F8
3E79F8
1F03F0
0FFFE0
03FF80
00FE00
ENDCHAR

STARTCHAR a139
ENCODING 191
SWIDTH 788 0
DWIDTH 26 0
BBX 23 23 1 0
BITMAP
00FE00
03FF80
0FFFE0
1F7C30
3E7998
207188
7C71CC
7C63C4
FC63C6
FC63C6
FC63C6
FC63C6
FC63C6
FC63C6
FC63C6
7C63C4
7C718C
7C7188
3C3998
181C30
1FFFE0
07FF80
01FE00
ENDCHAR

STARTCHAR a140
ENCODING 192
SWIDTH 788 0
DWIDTH 26 0
BBX 23 23 1 0
BITMAP
00FF00
0783C0
0E0060
180030
301818
60380C
40F804
401804
C01806
801802
801802
801802
801802
801802
C01806
401804
60180C
201808
301818
180030
0E0060
0383C0
00FE00
ENDCHAR

STARTCHAR a141
ENCODING 193
SWIDTH 788 0
DWIDTH 26 0
BBX 23 23 1 0
BITMAP
00FE00
0783C0
0C0060
183830
30FE18
60C60C
418304
418304
C18306
800302
800702
800E02
801C02
803802
C07006
40E004
60C00C
21FF08
31FF18
180030
0E00E0
038380
00FE00
ENDCHAR

STARTCHAR a142
ENCODING 194
SWIDTH 788 0
DWIDTH 26 0
BBX 23 23 1 0
BITMAP
00FE00
0783C0
0E0060
183830
30FE18
20C70C
61830C
418304
C00306
800702
800E02
803C02
800E02
800302
C00306
418304
418304
61C70C
30FE18
187830
0C0060
0781C0
00FF00
ENDCHAR

STARTCHAR a143
ENCODING 195
SWIDTH 788 0
DWIDTH 26 0
BBX 23 23 1 0
BITMAP
00FE00
0783C0
0E0060
180030
301C18
601C0C
403C04
406C04
C06C06
80CC02
818C02
830C02
830C02
87FF02
C7FF06
400C04
600C0C
200C08
300C18
180030
0E00E0
038380
00FE00
ENDCHAR

STARTCHAR a144
ENCODING 196
SWIDTH 788 0
DWIDTH 26 0
BBX 23 23 1 0
BITMAP
00FE00
0783C0
0E00E0
180030
31FE18
61FE0C
61800C
418004
C1BC06
81FE02
81C302
81C182
818182
800182
C00186
408184
41C384
60C70C
30FE18
183C30
0C0060
0783C0
01FE00
ENDCHAR

STARTCHAR a145
ENCODING 197
SWIDTH 788 0
DWIDTH 26 0
BBX 23 23 1 0
BITMAP
01FE00
0783C0
0C0060
183830
30FE18
61C60C
418204
C30006
830006
837C02
83EE02
838602
830302
830302
C30306
410304
41830C
61C60C
30FC18
183030
0C0060
0783C0
00FE00
ENDCHAR

STARTCHAR a146
ENCODING 198
SWIDTH 788 0
DWIDTH 26 0
BBX 23 23 1 0
BITMAP
00FE00
038380
0E00E0
180030
33FF98
23FF88
60030C
400604
C00606
800C02
801C02
801802
803802
803002
C07006
406004
60600C
60600C
30E018
180030
0E00E0
0783C0
00FE00
ENDCHAR

STARTCHAR a147
ENCODING 199
SWIDTH 788 0
DWIDTH 26 0
BBX 23 23 1 0
BITMAP
00FE00
038380
0E00E0
180030
307C18
20E608
61830C
418304
C18306
808202
80EE02
807C02
80C602
818302
C18306
418304
61830C
20C608
307C18
180030
0E00E0
038380
00FE00
ENDCHAR

STARTCHAR a148
ENCODING 200
SWIDTH 788 0
DWIDTH 26 0
BBX 23 23 1 0
BITMAP
00FE00
038380
0E00E0
180030
307C18
20CE08
61860C
418304
C18306
818302
818702
80CF02
807F02
800302
C00306
400204
60C60C
20C608
307C18
183030
0E00E0
0783C0
00FE00
ENDCHAR

STARTCHAR a149
ENCODING 201
SWIDTH 788 0
DWIDTH 26 0
BBX 23 23 1 0
BITMAP
00FE00
0783C0
0C00E0
180030
310F98
6319CC
4F18CC
433064
C33066
833062
833062
833062
833062
833062
C33066
431844
6318CC
630DC8
330F98
180030
0E00E0
078380
00FE00
ENDCHAR

STARTCHAR a150
ENCODING 202
SWIDTH 788 0
DWIDTH 26 0
BBX 23 23 1 0
BITMAP
007C00
03FF80
07FFC0
1FFFF0
3FE7F0
3FC7F8
7E07FC
7E07FC
FFC7FE
FFC7FE
FFC7FE
FFC7FE
FFC7FE
FFC7FE
FFC7FE
7FC7FC
7FC7FC
3FC7F8
3FC7F8
1FFFF0
0FFFE0
03FF80
00FE00
ENDCHAR

STARTCHAR a151
ENCODING 203
SWIDTH 788 0
DWIDTH 26 0
BBX 23 23 1 0
BITMAP
01FF00
07FFC0
0FFFE0
1FC7F0
3F01F8
7E38FC
7E78FC
7C7C7C
FC7C7E
FFFC7E
FFF8FE
FFF8FE
FFE1FE
FFC3FE
FF8FFE
7F1FFC
7E3FFC
3E0078
3C0078
1FFFF0
0FFFE0
03FF80
00FE00
ENDCHAR

STARTCHAR a152
ENCODING 204
SWIDTH 788 0
DWIDTH 26 0
BBX 23 23 1 0
BITMAP
01FF00
07FFC0
0FFFE0
1FC7F0
3F01F8
7E38FC
7E38FC
FE7CFC
FFFCFE
FFF8FE
FFC1FE
FFC1FE
FFF8FE
FFFC7E
FC7C7E
FE7C7C
7E38FC
7F01F8
3F83F8
1FFFF0
0FFFE0
03FF80
00FE00
ENDCHAR

STARTCHAR a153
ENCODING 205
SWIDTH 788 0
DWIDTH 26 0
BBX 23 23 1 0
BITMAP
01FF00
07FFC0
0FFFE0
1FF3F0
3FE3F8
3FC3FC
7FC3FC
7F9BFE
FF13FE
FF33FE
FE73FE
FC73FE
FCF3FE
F8007E
F8007E
7FF3FE
7FF3FC
3FF3FC
3FF3F8
1FFFF0
0FFFE0
03FFC0
00FE00
ENDCHAR

STARTCHAR a154
ENCODING 206
SWIDTH 788 0
DWIDTH 26 0
BBX 23 23 1 0
BITMAP
007C00
03FF80
0FFFC0
1FFFF0
3E00F0
3E00F8
7E7FFC
7E7FFC
FE67FE
FE01FE
FE38FE
FE3C7E
FE7C7E
FFFC7E
FFFC7E
7E3C7C
7E38FC
3F01F8
3F83F8
1FFFF0
0FFFE0
03FF80
00FE00
ENDCHAR

STARTCHAR a155
ENCODING 207
SWIDTH 788 0
DWIDTH 26 0
BBX 23 23 1 0
BITMAP
01FE00
07FF80
0FFFE0
1FC7F0
3F01F8
3E39F8
7E78FC
7E7BFC
FC7FFC
FC03FE
FC01FE
FC78FE
FC78FE
FC7CFE
FC7CFC
7E78FC
7E39FC
3F01F8
3F87F0
1FFFF0
0FFFE0
03FF80
00FE00
ENDCHAR

STARTCHAR a156
ENCODING 208
SWIDTH 788 0
DWIDTH 26 0
BBX 23 23 1 0
BITMAP
007C00
03FF80
07FFC0
1FFFF0
3C0070
3C0078
7FF8FC
7FF9FC
FFF1FE
FFF3FE
FFE3FE
FFC7FE
FFC7FE
FF8FFE
FF8FFE
7F8FFC
7F1FFC
3F1FF8
3F1FF8
1FFFF0
0FFFE0
03FF80
00FE00
ENDCHAR

STARTCHAR a157
ENCODING 209
SWIDTH 788 0
DWIDTH 26 0
BBX 23 23 1 0
BITMAP
01FF00
07FFC0
0FFFE0
1FC3F0
3F01F8
7F18FC
7E3CFC
7E3CFE
FE3CFE
FF38FE
FF01FE
FF01FE
FE3CFE
FE7C7E
FC7C7E
7E7C7C
7E3CFC
3F00F8
3F83F8
1FFFF0
0FFFE0
03FF80
00FE00
ENDCHAR

STARTCHAR a158
ENCODING 210
SWIDTH 788 0
DWIDTH 26 0
BBX 23 23 1 0
BITMAP
01FF00
07FFC0
0FFFE0
1FE7F0
3F01F8
3E39F8
7E78FC
7E7CFC
FC7C7E
FC7C7E
FE7C7E
FE387E
FF007E
FF807E
FFFCFE
FFFCFE
7E38FC
7E31FC
3F03F8
1FFFF0
0FFFE0
03FFC0
00FE00
ENDCHAR

STARTCHAR a159
ENCODING 211
SWIDTH 788 0
DWIDTH 26 0
BBX 23 23 1 0
BITMAP
01FF00
07FFC0
0FFFE0
1FF8F0
3E7038
3C673C
60471C
6C479E
FC4F9E
FC4F8E
FC4F8E
FC4F8E
FC4F8E
FC4F9E
FC479E
7C671C
7C671C
3C603C
3C7878
1FFFF0
0FFFE0
03FF80
00FE00
ENDCHAR

STARTCHAR a160
ENCODING 212
SWIDTH 894 0
DWIDTH 30 0
BBX 26 19 1 2
BITMAP
000FC000
0007E000
0003F000
0001F800
0000FC00
00007E00
00003F00
FFFFFF80
FFFFFFC0
FFFFFFC0
FFFFFF80
FFFFFF00
00007E00
00007C00
0000FC00
0001F800
0003F000
0007E000
000FC000
ENDCHAR

STARTCHAR a161
ENCODING 213
SWIDTH 838 0
DWIDTH 28 0
BBX 25 13 1 5
BITMAP
0000C000
0000C000
00006000
00007000
00003C00
00003F80
FFFFFF80
00003C00
00007800
00006000
0000C000
00008000
00018000
ENDCHAR

STARTCHAR a163
ENCODING 214
SWIDTH 1016 0
DWIDTH 34 0
BBX 30 13 1 5
BITMAP
01800600
01800300
03000180
060001C0
1E0001E0
FC0000FC
FFFFFFFC
3C0000F0
0E0001C0
07000180
03000300
01800200
01800600
ENDCHAR

STARTCHAR a164
ENCODING 215
SWIDTH 458 0
DWIDTH 15 0
BBX 13 32 1 -5
BITMAP
0200
0200
0700
0700
0F80
1FC0
1FC0
7A70
E238
8208
0200
0200
0200
0200
0200
0200
0200
0200
0200
0200
0200
0200
8208
E238
72F0
1FC0
1FC0
0F80
0700
0700
0200
0200
ENDCHAR

STARTCHAR a196
ENCODING 216
SWIDTH 748 0
DWIDTH 25 0
BBX 21 16 1 3
BITMAP
300000
7C0000
FE0000
FF0000
3F8000
1FC100
07E380
01F380
00FFC0
003FC0
000FE0
001FE0
003FF0
003FF0
001FF0
000038
ENDCHAR

STARTCHAR a165
ENCODING 217
SWIDTH 924 0
DWIDTH 31 0
BBX 26 14 1 5
BITMAP
00030000
00038000
0001E000
0000F800
F000FC00
FFF07F00
FFFFFFC0
FFFFFFC0
FFFC7F80
FE00FE00
0000F800
0000E000
0001C000
00030000
ENDCHAR

STARTCHAR a192
ENCODING 218
SWIDTH 748 0
DWIDTH 25 0
BBX 21 16 1 4
BITMAP
000038
001FF0
003FF0
003FF0
001FE0
000FE0
003FC0
00FFC0
01F380
07E380
1FC100
3F8000
FF0000
FE0000
7C0000
300000
ENDCHAR

STARTCHAR a166
ENCODING 219
SWIDTH 918 0
DWIDTH 31 0
BBX 27 13 1 5
BITMAP
00C00000
00F00000
007C0000
003F8000
003FF000
001FFFE0
FFFFFFE0
001FFC00
003FC000
003E0000
00780000
00E00000
00C00000
ENDCHAR

STARTCHAR a167
ENCODING 220
SWIDTH 927 0
DWIDTH 31 0
BBX 27 20 1 2
BITMAP
0001E000
0003F000
0003F800
0003FC00
0001FE00
0000FF00
00007F00
7FFFFF80
FFFFFFC0
FFFFFFE0
FFFFFFE0
FFFFFFC0
7FFFFF80
00007F80
0000FF00
0001FE00
0003FC00
0003F800
0003F000
0001E000
ENDCHAR

STARTCHAR a168
ENCODING 221
SWIDTH 928 0
DWIDTH 31 0
BBX 27 13 1 5
BITMAP
00000C00
00000E00
00000F00
00000F80
00000FC0
00000FE0
FFFFFFE0
00000FC0
00000F80
00000F00
00000E00
00000C00
00000C00
ENDCHAR

STARTCHAR a169
ENCODING 222
SWIDTH 928 0
DWIDTH 31 0
BBX 27 12 1 6
BITMAP
00000C00
00000E00
00000F00
00000F80
FFFFFFC0
FFFFFFE0
FFFFFFE0
FFFFFFC0
00000F80
00000F00
00000E00
00000C00
ENDCHAR

STARTCHAR a170
ENCODING 223
SWIDTH 834 0
DWIDTH 28 0
BBX 24 11 1 6
BITMAP
000060
000078
937FFC
937FFE
937FFF
937FFF
937FFE
937FFC
000078
000070
000060
ENDCHAR

STARTCHAR a171
ENCODING 224
SWIDTH 873 0
DWIDTH 29 0
BBX 25 17 1 3
BITMAP
00004000
00006000
00006000
936FF000
936FF800
936FFC00
936FFE00
936FFF00
936FFF80
936FFE00
936FFC00
936FF800
936FF000
00006000
00006000
00004000
00004000
ENDCHAR

STARTCHAR a172
ENCODING 225
SWIDTH 828 0
DWIDTH 28 0
BBX 24 14 1 5
BITMAP
0000C0
0000E0
FFFFF0
FFFFF8
FFFFFC
FFFFFE
FFFFFF
FFFFFF
FFFFFE
FFFFFC
FFFFF8
FFFFF0
0000E0
0000C0
ENDCHAR

STARTCHAR a173
ENCODING 226
SWIDTH 924 0
DWIDTH 31 0
BBX 27 18 1 3
BITMAP
80000000
E0000000
7C000000
3F800000
1CF00000
0E1F0000
0703E000
01803E00
00C007E0
007FFFE0
00FFFE00
03FFF000
07FF8000
0FF80000
1FC00000
3E000000
E0000000
C0000000
ENDCHAR

STARTCHAR a162
ENCODING 227
SWIDTH 924 0
DWIDTH 31 0
BBX 27 18 1 3
BITMAP
80000000
C0000000
78000000
1F800000
0FF00000
07FE0000
03FFE000
01FFFC00
00FFFFA0
00E003E0
01C01F00
0380F000
060F8000
0C780000
3FC00000
3E000000
E0000000
C0000000
ENDCHAR

STARTCHAR a174
ENCODING 228
SWIDTH 917 0
DWIDTH 31 0
BBX 26 23 1 0
BITMAP
C0000000
F0000000
7C000000
3F000000
3FE00000
1FF80000
0FFF0000
0FFFC000
07FFF800
07FFFE00
03FFFFC0
03FFFFC0
03FFFF00
07FFFC00
0FFFF000
0FFF8000
1FFE0000
1FF80000
3FC00000
3F000000
7C000000
E0000000
C0000000
ENDCHAR

STARTCHAR a175
ENCODING 229
SWIDTH 930 0
DWIDTH 31 0
BBX 27 17 1 3
BITMAP
80000000
80000000
C0008000
C000E000
FC00F000
FFFFFC00
FFFFFE00
FFFFFF80
FFFFFFC0
FFFFFFE0
FFFFFFC0
FFFFFF80
7FFFFE00
3FFFFC00
07FFF000
0000E000
00008000
ENDCHAR

STARTCHAR a176
ENCODING 230
SWIDTH 931 0
DWIDTH 31 0
BBX 27 17 1 3
BITMAP
00008000
0000E000
07FFF000
3FFFFC00
7FFFFE00
FFFFFF80
FFFFFFC0
FFFFFFE0
FFFFFFC0
FFFFFF80
FFFFFE00
FFFFFC00
FFFFF000
C000E000
C0008000
80000000
80000000
ENDCHAR

STARTCHAR a177
ENCODING 231
SWIDTH 463 0
DWIDTH 15 0
BBX 13 30 1 -3
BITMAP
1800
0800
0C00
0C00
0E00
FE00
FF00
FF80
FF80
FFC0
FFC0
FFE0
FFE0
FFF0
FFF8
FFF8
FFF0
FFF0
FFE0
FFC0
FFC0
FF80
FF80
FF00
FF00
0E00
0C00
0C00
0800
1800
ENDCHAR

STARTCHAR a178
ENCODING 232
SWIDTH 883 0
DWIDTH 29 0
BBX 26 19 1 2
BITMAP
00080000
000C0000
000C0000
FFFE0000
FFFF0000
FFFF8000
FFFFE000
FFFFF000
FFFFFE00
FFFFFFC0
FFFFFE00
FFFFF000
FFFFE000
FFFF8000
FFFF0000
FFFE0000
000E0000
000C0000
00080000
ENDCHAR

STARTCHAR a179
ENCODING 233
SWIDTH 836 0
DWIDTH 28 0
BBX 24 23 1 0
BITMAP
000800
000F80
000FC0
000BE0
0009E0
0008F0
000878
FFF83C
80003E
80001E
80000F
800007
80000F
80001E
80003C
FFF878
0008F8
0008F0
0009E0
000BC0
000FC0
000F80
000800
ENDCHAR

STARTCHAR a193
ENCODING 234
SWIDTH 836 0
DWIDTH 28 0
BBX 25 23 1 0
BITMAP
00030000
000F8000
000FC000
000EC000
000E6000
000E3000
000E1800
FFFE0C00
E0000600
E0000700
E0000380
E0000180
E0000300
E0000600
E0000E00
FFFE1C00
000E1800
000E3000
000E6000
000EC000
000F8000
000F8000
00030000
ENDCHAR

STARTCHAR a180
ENCODING 235
SWIDTH 867 0
DWIDTH 29 0
BBX 28 17 0 3
BITMAP
00000600
00000E00
00001F00
03FFF980
070001C0
0E0000E0
1C000070
380000F0
700003E0
E0001FE0
FFFC7FE0
7FFFFF80
7FFFFE00
7FFFF800
000FC000
000F0000
000C0000
ENDCHAR

STARTCHAR a199
ENCODING 236
SWIDTH 867 0
DWIDTH 29 0
BBX 28 17 0 3
BITMAP
000C0000
000F0000
000FC000
7FFFF800
7FFFFE00
7FFFFF80
FFFC7FE0
E0001FE0
700007E0
380000E0
1C000070
0E0000E0
070001C0
03FFF980
00001F00
00000F00
00000600
ENDCHAR

STARTCHAR a181
ENCODING 237
SWIDTH 696 0
DWIDTH 23 0
BBX 20 19 1 2
BITMAP
00C000
00E000
00F000
FF9800
800C00
800600
800300
800180
8000E0
8000E0
8001F0
8003E0
8007C0
C00F80
FF9F00
7FBE00
3FFC00
00F800
00F000
ENDCHAR

STARTCHAR a200
ENCODING 238
SWIDTH 696 0
DWIDTH 23 0
BBX 20 19 1 2
BITMAP
00F000
00F800
3FFC00
7FBE00
FF9F00
800F80
8007C0
8003E0
8001F0
8000E0
8000E0
800180
800300
800600
800C00
FF9800
00F000
00E000
00C000
ENDCHAR

STARTCHAR a182
ENCODING 239
SWIDTH 874 0
DWIDTH 29 0
BBX 25 18 1 3
BITMAP
00004000
00006000
00007000
FFFFD800
C0000C00
60000600
60000700
20000380
30000180
60000180
60000380
C0000700
C0000E00
FFFFDC00
3FFFF800
00007000
00006000
00004000
ENDCHAR

STARTCHAR a201
ENCODING 241
SWIDTH 874 0
DWIDTH 29 0
BBX 25 18 1 2
BITMAP
00004000
00006000
00007000
3FFFF800
FFFFDC00
C0000E00
C0000700
60000380
70000180
30000180
20000380
60000700
40000E00
C0001C00
FFFFF800
00007000
00006000
00004000
ENDCHAR

STARTCHAR a183
ENCODING 242
SWIDTH 760 0
DWIDTH 25 0
BBX 22 25 1 -1
BITMAP
003000
07F800
1FEF00
7FE7C0
FFE3E0
FFE3F0
0001F0
0000F8
000078
00003C
00001C
00000C
000004
00000C
00001C
000038
000078
0000F8
0001F0
FFE3F0
FFE7E0
7FEF80
1FEF00
07F800
003000
ENDCHAR

STARTCHAR a184
ENCODING 243
SWIDTH 946 0
DWIDTH 32 0
BBX 28 13 1 5
BITMAP
FFF00000
FBD80600
6F780700
3DFC0700
3EF60780
1BDE03C0
0FFFFFF0
1BDE03C0
36F60780
3DBC0700
6F780700
FBD80600
FFF00000
ENDCHAR

STARTCHAR a197
ENCODING 244
SWIDTH 771 0
DWIDTH 26 0
BBX 22 20 2 1
BITMAP
040000
070000
078000
07C000
07E000
03F000
FDF800
7EF800
3F7800
1FBC00
0FCC00
07E400
03F000
01C610
0003B0
0000F0
000078
0000F8
0001F8
00011C
ENDCHAR

STARTCHAR a185
ENCODING 245
SWIDTH 865 0
DWIDTH 29 0
BBX 24 9 2 7
BITMAP
FFC000
FFE030
7FF03C
3FFC1E
0007FF
3FF81E
7FF038
FFF030
FFE000
ENDCHAR

STARTCHAR a194
ENCODING 246
SWIDTH 771 0
DWIDTH 26 0
BBX 22 20 2 2
BITMAP
00011C
0001F8
0000F8
000078
0000F0
0003B0
01C610
03F000
07E400
0FCC00
1FBC00
3F7800
7EF800
FDF800
03F000
07E000
07C000
078000
070000
040000
ENDCHAR

STARTCHAR a198
ENCODING 247
SWIDTH 888 0
DWIDTH 30 0
BBX 25 24 2 -1
BITMAP
01800000
01C00000
03E00000
03F00000
03F80000
03FE0000
03FF0000
0DFF0000
7FFE0000
FFFE0000
FFFE0000
7FFE0000
3FFE0300
1FFE0300
0FFF0200
03C38600
0100C700
00006700
00003700
00001F00
00003F00
0000FF80
0001FF80
00030080
ENDCHAR

STARTCHAR a186
ENCODING 248
SWIDTH 967 0
DWIDTH 32 0
BBX 28 15 1 4
BITMAP
00000800
FFE00C00
FFE00C00
7FF00600
7FF00780
3FF807C0
1FFE03F0
07FFFFF0
1FFF03C0
3FF80780
7FF80700
7FF00600
FFF00C00
FFE00800
00000800
ENDCHAR

STARTCHAR a195
ENCODING 249
SWIDTH 888 0
DWIDTH 30 0
BBX 25 24 2 0
BITMAP
00030080
0001FF80
0000FF80
00003F00
00001F00
00003700
00006700
0100C700
03C38600
0FFF0200
1FFE0300
3FFE0300
7FFE0000
FFFE0000
FFFE0000
7FFE0000
0DFF0000
03FF0000
03FE0000
03F80000
03F00000
03E00000
01C00000
01800000
ENDCHAR

STARTCHAR a187
ENCODING 250
SWIDTH 831 0
DWIDTH 28 0
BBX 24 15 1 4
BITMAP
0001C0
0003E0
0003E0
0001F0
3C00F0
7FE078
FFFE0F
FFFFFF
FFFE0F
7FE078
3E01F0
0003F0
0003E0
0003E0
0003C0
ENDCHAR

STARTCHAR a188
ENCODING 251
SWIDTH 873 0
DWIDTH 29 0
BBX 25 15 1 4
BITMAP
00002000
00007000
1F007000
1FC07800
3FE07C00
3FF07E00
FFFC3F80
FFFFFF80
3FFC3F00
3FF07E00
3FE07C00
1FC07800
0F007000
00007000
00002000
ENDCHAR

STARTCHAR a189
ENCODING 252
SWIDTH 927 0
DWIDTH 31 0
BBX 27 14 1 5
BITMAP
7FC00000
FFE01C00
FFF01E00
7FF81F00
7FFC1F80
3FFFFFC0
1FFFFFE0
1FFFFFE0
3FFFFFE0
7FFC1FC0
7FF81F80
FFF01F00
FFE01C00
7FC00000
ENDCHAR

STARTCHAR a190
ENCODING 253
SWIDTH 970 0
DWIDTH 32 0
BBX 29 18 1 3
BITMAP
7FF80000
FFFC1C00
FFFE1E00
FFFE1F00
7FFF1F80
7FFF1FC0
7FFF9FE0
7FFFFFF0
3FFFFFF8
3FFFFFF8
7FFFFFF0
7FFF9FE0
7FFF1FC0
7FFF1F80
FFFE1F00
FFFE1E00
FFFC1C00
7FF80000
ENDCHAR

STARTCHAR a191
ENCODING 254
SWIDTH 918 0
DWIDTH 31 0
BBX 27 17 1 3
BITMAP
00062000
00063000
00031800
00019C00
0000CC00
FFFFE700
FFFFF380
000010C0
000000E0
000011C0
FFFFF380
FFFFE700
0000CE00
00019C00
00031800
00073000
00062000
ENDCHAR
ENDFONT
